<?xml version="1.0" standalone="no"?>
<!DOCTYPE svg PUBLIC "-//W3C//DTD SVG 20010904//EN"
 "http://www.w3.org/TR/2001/REC-SVG-20010904/DTD/svg10.dtd">
<svg version="1.0" xmlns="http://www.w3.org/2000/svg"
 width="288.000000pt" height="288.000000pt" viewBox="0 0 288.000000 288.000000"
 preserveAspectRatio="xMidYMid meet">
<metadata>
Created by potrace 1.14, written by Peter Selinger 2001-2017
</metadata>
<g transform="translate(0.000000,288.000000) scale(0.100000,-0.100000)"
fill="#000000" stroke="none">
<path d="M1223 2310 c-10 -3 -19 -16 -21 -30 -1 -14 -7 -36 -12 -50 -10 -24
-14 -25 -93 -24 -95 0 -117 -4 -112 -19 6 -19 -19 -82 -32 -83 -7 -1 -16 -3
-20 -4 -5 -2 -19 -3 -33 -4 -21 -1 -25 -6 -28 -37 -4 -46 -31 -71 -76 -71
l-35 0 0 -81 c1 -97 -11 -136 -43 -139 -56 -3 -63 -8 -66 -50 -3 -38 -10 -47
-43 -54 -13 -3 -31 -7 -39 -9 -8 -2 -17 -4 -20 -4 -3 -1 -5 -71 -5 -156 0
-148 1 -155 20 -156 64 -2 85 -14 85 -48 0 -31 -29 -61 -60 -61 -40 -1 -44
-14 -46 -165 -1 -135 0 -150 20 -180 15 -24 30 -34 51 -37 24 -2 31 -8 33 -30
3 -25 12 -32 33 -30 4 1 12 -12 19 -28 7 -17 20 -30 30 -30 10 0 23 -13 30
-30 9 -21 19 -30 36 -30 17 0 23 -6 26 -27 2 -20 9 -29 26 -31 12 -2 22 -9 22
-17 0 -20 47 -31 121 -30 86 2 93 5 109 54 7 23 18 45 23 48 13 8 472 7 485
-1 7 -4 15 -25 18 -47 4 -22 12 -43 18 -46 12 -8 536 -11 537 -3 0 3 2 18 4
34 6 45 35 68 96 75 3 1 7 23 8 50 1 48 0 50 -45 83 -26 18 -50 43 -55 56 -5
12 -30 36 -56 52 -51 32 -60 50 -62 116 -1 51 23 76 75 78 l37 1 2 158 c1 87
5 160 8 163 3 3 27 7 54 8 l48 2 0 322 0 322 -22 0 c-48 0 -86 35 -89 80 -2
39 -3 40 -19 34 -9 -4 -28 -1 -44 6 -29 12 -43 36 -44 78 -1 12 -6 22 -11 23
-18 1 -138 1 -177 0 -33 -1 -37 -4 -47 -39 -7 -21 -20 -46 -30 -56 -18 -16
-20 -15 -42 2 -13 11 -23 32 -25 52 -2 19 -4 37 -4 40 -1 3 -113 5 -250 5
-138 0 -258 -2 -268 -5z"/>
</g>
</svg>
