<?xml version="1.0" encoding="utf-8"?>
<!-- Svg Vector Icons : http://www.onlinewebfonts.com/icon -->
<!DOCTYPE svg PUBLIC "-//W3C//DTD SVG 1.1//EN" "http://www.w3.org/Graphics/SVG/1.1/DTD/svg11.dtd">
<svg version="1.1" xmlns="http://www.w3.org/2000/svg" xmlns:xlink="http://www.w3.org/1999/xlink" x="0px" y="0px" viewBox="0 0 1000 1000" enable-background="new 0 0 1000 1000" xml:space="preserve">
<metadata> Svg Vector Icons : http://www.onlinewebfonts.com/icon </metadata>
<g><path fill="#ffffff" d="M507.1,755.7v-82.9H258.6v82.9H507.1z M507.1,590v82.9h48.5L872.8,990L990,872.8L672.8,555.6v-48.5H590v62.6L569.7,590H507.1z M175.7,672.8h82.9V590h-82.9v-82.9H92.9v165.7H175.7z M672.8,258.6v248.6h82.9V258.6H672.8z M590,258.6h82.9V92.9H590h-82.9v82.9H590V258.6z M92.9,92.9v165.7h82.9v-82.9h82.9V92.9h-82.9H92.9z M10,507.1h82.9V258.6H10V507.1z M258.6,10v82.9h248.6V10H258.6z"/></g>
</svg>
